<?xml version="1.0" encoding="utf-8"?>
<!-- Generator: Adobe Illustrator 22.1.0, SVG Export Plug-In . SVG Version: 6.00 Build 0)  -->
<svg version="1.1" id="レイヤー_1" xmlns="http://www.w3.org/2000/svg" xmlns:xlink="http://www.w3.org/1999/xlink" x="0px"
	 y="0px" viewBox="0 0 959 169" style="enable-background:new 0 0 959 169;" xml:space="preserve">
<g>
	<g>
		<polygon style="fill:#FFFFFF;" points="27.76,12.139 0,122.447 199.78,122.447 227.533,12.139 		"/>
		<polygon style="fill:#ED1C24;" points="126.651,15.06 126.226,15.06 99.969,119.518 196.607,119.518 222.885,15.06 		"/>
		<polygon points="30.685,15.06 4.4,119.518 99.966,119.518 126.223,15.06 		"/>
		<path style="fill:#FFFFFF;" d="M201.901,71.711c-0.814,4.279-1.705,6.728-3.117,9.546c-2.637,5.267-7.945,8.133-15.445,9.121
			c-2.915,0.39-6.853,0.278-6.853,0.278l15.661,22.215H168.93l-21.735-30.918c0,0,18.924-0.056,20.907-0.056
			c4.529,0,10.499-1.329,12.189-4.453c0.494-0.932,1.224-2.532,1.231-4.23c0.028-2.101-2.018-3.875-5.489-3.875
			c-3.486,0-34.028-0.007-34.028-0.007l-10.777,42.941h-21.957l13.79-53.502c0,0,52.055-0.014,62.894-0.014
			C197.726,58.756,203.243,64.67,201.901,71.711"/>
		<path style="fill:#FFFFFF;" d="M101.481,80.884L65.31,80.925l-3.402,10.144h17.978l-2.922,9.817H47.986
			c-6.324,0-8.982-1.537-8.349-5.976c0.717-5.065,2.595-9.295,4.327-13.97c3.479-9.441,8.509-11.841,29.464-11.841h31.35
			l3.332-10.61c0,0-29.896-0.028-37.681-0.028c-30.71,0-41.208,3.604-47.073,18.611c-2.004,5.107-4.974,14.506-6.31,22.256
			c-1.565,9.142,5.503,12.69,13.024,12.948c10.387,0.348,62.547,0.181,62.547,0.181L101.481,80.884z"/>
	</g>
	<path style="fill:#FFFFFF;" d="M953.455,81.729c-11.977,0.702-49.087,3.775-68.226,3.32c-15.138-0.36-28.744,1.026-29.131-9.449
		c-0.218-5.904,7.317-11.078,9.966-16.089c1.098-2.078,0.411-3.631-2.045-2.553c-7.626,3.344-13.209,5.641-14.821,6.384
		c-1.866,0.859-1.698-0.329-1.789-2.554c-0.505-12.358-15.91-17.649-31.941-15.834c-14.95,1.693-32.084,7.538-48.806,16.6
		c-2.42,1.279-2.149,0.2-3.067-1.277c-1.458-2.348-2.83-3.851-3.833-4.597c-2.4-1.787-3.692-2.015-7.667,0
		c-8.07,4.092-21.96,9.514-26.83,9.705c-1.604,0.063-1.724-0.439-1.789-3.575c-0.088-4.317-2.741-5.571-5.622-5.874
		c-1.797-0.189-4.204,0.867-7.155,2.554c-11.601,6.636-33.707,18.484-42.162,21.452c-2.194,0.77-1.238-0.364-0.255-1.788
		c7.351-10.657,7.817-25.389-13.032-22.985c-15.755,1.816-32.797,5.135-51.106,12.77c-2.528,1.054-3.142,0.616-4.089-0.767
		c-0.997-1.456-1.412-1.782-2.044-2.553c-0.973-1.187-3.622-1.156-5.622-0.511c-9.202,2.97-25.596,12.766-33.474,18.388
		c-6.005,4.286-8.707,1.382-9.199-1.021c-2.391-11.68-4.239-24.107-18.91-25.028c-7.213,18.97-21.966,28.523-37.563,30.391
		c-5.271,0.631-7.115-2.647-9.71-11.748c-4.054-14.22-7.536-14.459-10.221-14.557c-4.561,8.024-14.229,17.685-18.439,21.501
		c-0.955,0.865-1.835,0.366-2.514-0.814c-6.413-11.13-41.169-24.315-93.524-40.862c-6.409-2.026-8.623-4.101-6.899-6.13
		c2.075-2.441,8.759-1.771,11.499-1.532c18.354,1.602,40.703,6.668,55.45,10.982c4.348,1.272,12.196,4.291,16.098,5.107
		c4.773,0.999,4.419-1.595,2.81-3.575c-4.267-5.255-13.046-11.684-18.398-12.769c-3.331-0.675-7.385-0.7-14.054-2.043
		c-9.739-1.961-46.261-7.916-61.839-8.939c-6.786-0.445-22.108-0.992-25.297,6.385c-2.331,5.389,0.835,8.994,12.66,13.605
		c20.35,7.936,33.291,12.894,48.156,20.106c14.043,6.813,13.869,14.063,6.899,16.855c-3.515,1.408-9.357,2.184-22.997,2.554
		c-38.078,1.079-73.512,1.465-116.011,1.276c-3.761-0.017-3.859,2.337-1.789,4.597c3.808,4.158,10.809,5.698,21.209,7.152
		c16.081,2.245,24.103,4.699,34.241,12.513c2.507,1.933,4.743,2.505,8.177,2.554c11.601,0.166,19.833,0.452,39.863,0.511
		c72.151,0.208,96.49-3.588,107.067-17.366c2.059-1.097,3.685-1.8,6.644-3.064c1.754-0.75,1.903,0.011,2.045,2.297
		c0.847,13.677,9.085,17.633,19.42,17.622c7.176-0.007,20.846-2.423,38.329-8.939c1.794-0.627,2.447-0.145,3.833,1.023
		c1.75,1.471,7.811,4.747,11.755,4.852c4.587,0.122,9.789-8.154,25.553-17.111c2.804-1.593,2.952-1.77,2.045,0.511
		c-1.232,3.094-4.428,12.389-4.344,24.262c0.093,13.402,4.366,36.92,20.187,53.886c1.813,1.944,3.865,2.195,3.578-0.766
		c-0.287-2.961-0.075-19.922,0.511-24.517c0.174-1.366,0.261-2.915-0.511-5.109c-2.488-7.068-3.237-25.748,3.322-34.732
		c0.586-0.803,1.121-1.077,3.321-0.255c9.515,3.556,21.597,7.652,30.663,7.662c12.118,0.012,20.733-5.495,39.432-18.08
		c3.006-2.022,6.541-3.121,13.463-6.438c2.101-1.007,2.937-0.83,2.044,0.511c-3.358,5.041-4.912,14.851-4.089,22.218
		c0.271,2.414,2.676,4.474,4.345,3.321c9.061-6.358,19.786-10.373,24.276-12.004c1.834-0.667,2.268-3.218,2.555-4.341
		c3.415-13.351,17.052-19.949,33.73-17.877c2.353,0.292,3.308,0.234,1.021,2.042c-5.182,4.099-9.435,10.871-9.454,14.047
		c-0.045,7.972,7.624,14.142,24.275,14.557c23.305,0.58,51.183-7.198,76.916-22.729c2.725-1.645,2.335-1.287,1.532,1.532
		c-0.586,2.061-2.212,9.025,3.833,13.024c8.708,5.762,29.873,8.33,58.261,8.173c6.853-0.037,9.318-1.06,13.286-4.086
		c12.272-9.353,16.391-10.561,30.154-12.259c7.113-0.723,15.655-2.153,19.164-5.617C961.315,81.333,958.25,81.449,953.455,81.729z
		 M641.964,84.283c-4.595,3.756-11.869,7.675-21.721,7.916c-5.175,0.127-16.301-1.866-20.953-2.809
		c-1.397-0.215-0.605-1.39,1.022-2.554c9.36-6.7,32.858-12.362,42.418-12.514c3.274-0.052,5.055,0.702,4.855,2.81
		C647.419,78.882,644.727,82.023,641.964,84.283z M826.92,71.127c-0.447,0.953-0.548,1.217-1.883,1.868
		c-13.833,6.747-47.816,15.466-56.074,14.352c-1.85-0.249-3.382-0.682-3.322-1.276c1.132-7.846,28.273-21.967,43.185-26.05
		C826.471,55.19,829.521,65.589,826.92,71.127z"/>
</g>
<g>
</g>
<g>
</g>
<g>
</g>
<g>
</g>
<g>
</g>
<g>
</g>
</svg>
