<?xml version="1.0" encoding="utf-8"?>
<!-- Generator: Adobe Illustrator 22.1.0, SVG Export Plug-In . SVG Version: 6.00 Build 0)  -->
<svg version="1.1" id="レイヤー_1" xmlns="http://www.w3.org/2000/svg" xmlns:xlink="http://www.w3.org/1999/xlink" x="0px"
	 y="0px" viewBox="0 0 177 52" style="enable-background:new 0 0 177 52;" xml:space="preserve">
<path style="fill:#FFFFFF;" d="M171.659,28.891c-2.897,0.17-11.873,0.913-16.503,0.803c-3.662-0.087-6.953,0.248-7.046-2.286
	c-0.053-1.428,1.77-2.68,2.411-3.892c0.266-0.503,0.1-0.878-0.495-0.618c-1.845,0.809-3.195,1.365-3.585,1.544
	c-0.451,0.208-0.411-0.08-0.433-0.618c-0.122-2.989-3.848-4.269-7.726-3.83c-3.616,0.409-7.761,1.823-11.805,4.015
	c-0.585,0.309-0.52,0.048-0.742-0.309c-0.353-0.568-0.685-0.931-0.927-1.112c-0.58-0.432-0.893-0.487-1.854,0
	c-1.952,0.99-5.312,2.301-6.49,2.347c-0.388,0.015-0.417-0.106-0.433-0.865c-0.021-1.044-0.663-1.348-1.36-1.421
	c-0.435-0.046-1.017,0.21-1.731,0.618c-2.806,1.605-8.153,4.471-10.198,5.189c-0.531,0.186-0.299-0.088-0.062-0.432
	c1.778-2.578,1.891-6.141-3.152-5.56c-3.811,0.439-7.933,1.242-12.362,3.089c-0.611,0.255-0.76,0.149-0.989-0.186
	c-0.241-0.352-0.342-0.431-0.494-0.618c-0.235-0.287-0.876-0.28-1.36-0.124c-2.226,0.718-6.191,3.088-8.097,4.448
	c-1.453,1.037-2.106,0.334-2.225-0.247c-0.578-2.825-1.025-5.831-4.574-6.054c-1.745,4.588-5.313,6.899-9.086,7.351
	c-1.275,0.153-1.721-0.64-2.349-2.842c-0.981-3.439-1.823-3.497-2.472-3.521c-1.103,1.941-3.442,4.278-4.46,5.201
	c-0.231,0.209-0.444,0.089-0.608-0.197c-1.551-2.692-9.958-5.881-22.622-9.884c-1.55-0.49-2.086-0.992-1.669-1.483
	c0.502-0.591,2.119-0.428,2.781-0.371c4.439,0.387,9.845,1.613,13.412,2.656c1.052,0.308,2.95,1.038,3.894,1.235
	c1.155,0.242,1.069-0.386,0.68-0.865c-1.032-1.271-3.156-2.826-4.45-3.089c-0.806-0.163-1.786-0.169-3.399-0.494
	C36.725,16,27.891,14.56,24.123,14.312c-1.641-0.108-5.348-0.24-6.119,1.544c-0.564,1.303,0.202,2.176,3.062,3.291
	c4.922,1.92,8.052,3.119,11.648,4.863c3.397,1.648,3.355,3.401,1.669,4.077c-0.85,0.341-2.263,0.528-5.563,0.618
	c-9.21,0.261-17.781,0.354-28.061,0.309c-0.91-0.004-0.933,0.565-0.433,1.112c0.921,1.006,2.615,1.378,5.13,1.73
	c3.89,0.543,5.83,1.137,8.282,3.027c0.606,0.468,1.147,0.606,1.978,0.618c2.806,0.04,4.797,0.109,9.642,0.123
	c17.452,0.05,23.339-0.868,25.898-4.201c0.498-0.265,0.891-0.435,1.607-0.741c0.424-0.181,0.46,0.003,0.495,0.556
	c0.205,3.308,2.198,4.265,4.697,4.263c1.736-0.002,5.042-0.586,9.271-2.162c0.434-0.152,0.592-0.035,0.927,0.247
	c0.423,0.356,1.889,1.148,2.843,1.174c1.109,0.03,2.368-1.972,6.181-4.139c0.678-0.385,0.714-0.428,0.495,0.124
	c-0.298,0.748-1.071,2.997-1.051,5.868c0.023,3.242,1.056,8.93,4.883,13.034c0.438,0.47,0.935,0.531,0.865-0.185
	c-0.07-0.716-0.018-4.819,0.124-5.93c0.042-0.331,0.063-0.705-0.124-1.236c-0.602-1.71-0.783-6.228,0.803-8.401
	c0.142-0.194,0.271-0.261,0.803-0.062c2.302,0.86,5.224,1.851,7.417,1.853c2.931,0.003,5.015-1.329,9.538-4.373
	c0.727-0.489,1.582-0.755,3.257-1.557c0.508-0.244,0.71-0.201,0.494,0.124c-0.812,1.219-1.188,3.592-0.989,5.374
	c0.066,0.584,0.647,1.082,1.051,0.803c2.192-1.538,4.786-2.509,5.872-2.904c0.444-0.161,0.549-0.778,0.618-1.05
	c0.826-3.229,4.125-4.825,8.159-4.324c0.569,0.071,0.8,0.057,0.247,0.494c-1.253,0.992-2.282,2.629-2.287,3.398
	c-0.011,1.928,1.844,3.421,5.872,3.521c5.637,0.14,12.38-1.741,18.605-5.498c0.659-0.398,0.565-0.311,0.371,0.371
	c-0.142,0.498-0.535,2.183,0.927,3.15c2.106,1.394,7.226,2.015,14.092,1.977c1.658-0.009,2.254-0.256,3.214-0.988
	c2.968-2.262,3.965-2.554,7.294-2.965c1.721-0.175,3.787-0.521,4.635-1.359C173.56,28.795,172.819,28.823,171.659,28.891z
	 M96.315,29.509c-1.111,0.908-2.871,1.857-5.254,1.915c-1.252,0.031-3.943-0.451-5.068-0.679c-0.338-0.052-0.146-0.336,0.247-0.618
	c2.264-1.621,7.948-2.99,10.26-3.027c0.792-0.013,1.223,0.17,1.174,0.68C97.634,28.202,96.983,28.962,96.315,29.509z
	 M141.052,26.326c-0.108,0.231-0.133,0.294-0.455,0.452c-3.346,1.632-11.566,3.741-13.563,3.471
	c-0.448-0.06-0.818-0.165-0.804-0.309c0.274-1.898,6.839-5.313,10.446-6.301C140.944,22.471,141.681,24.987,141.052,26.326z"/>
<g>
</g>
<g>
</g>
<g>
</g>
<g>
</g>
<g>
</g>
<g>
</g>
</svg>
